PathFileType	4	(X/Y/Z)	C:/Users/beibeiliu/ov580/test_trc\sequence.3_training_dense_right.trc
DataRate	CameraRate	NumFrames	NumMarkers	Units	OrigDataRate	OrigDataStartFrame	OrigNumFrames
120	120	10	19	mm	120	200	319
Frame#	Time	ThumbCMC			ThumbMCP			ThumbIP			ThumbTip			IndexMCP			IndexPIP			IndexTip			MiddleMCP			MiddlePIP			MiddleTip			RingMCP			RingPIP			RingTip			PinkyMCP			PinkyPIP			PinkyTip			BackHand1			BackHand2			BackHand3	
		X0	Y0	Z0	X1	Y1	Z1	X2	Y2	Z2	X3	Y3	Z3	X4	Y4	Z4	X5	Y5	Z5	X6	Y6	Z6	X7	Y7	Z7	X8	Y8	Z8	X9	Y9	Z9	X10	Y10	Z10	X11	Y11	Z11	X12	Y12	Z12	X13	Y13	Z13	X14	Y14	Z14	X15	Y15	Z15	X16	Y16	Z16	X17	Y17	Z17	X18	Y18	Z18	
199	1.65833	187.388	-61.9089	-20.1731	184.137	-96.3486	-15.7597	201.293	-113.626	-18.5655	224.014	-118.445	-14.6583	205.483	-110.718	-51.8002	201.072	-124.149	-29.99	198.157	-97.9375	-15.9036	222.32	-112.191	-44.0097	215.993	-117.761	-17.3757	212.908	-82.8068	-15.834	236.355	-105.049	-34.1675	223.429	-105.824	-9.86218	218.957	-77.5651	-8.47337	250.064	-94.9851	-26.5314	233.86	-93.913	-3.47461	223.843	-72.1872	-7.71125	236.876	-58.0379	-44.4416	227.588	-32.1813	-28.3586	202.451	-46.2664	-42.4	
200	1.66667	189.907	-54.4844	-19.7128	178.574	-82.3347	-24.932	198.103	-103.03	-29.8644	220.736	-107.674	-21.276	198.454	-112.489	-46.838	197.175	-125.846	-20.4915	195.519	-101.622	-5.29502	218.822	-117.256	-35.591	213.638	-120.078	-8.53047	211.518	-86.6116	-4.56926	233.028	-111.811	-26.1539	223.103	-104.178	-1.09238	221.493	-75.4614	-7.19876	247.98	-103.251	-19.1882	230.388	-94.3153	0.476968	225.757	-70.7472	-6.77575	234.946	-64.614	-44.3537	236.849	-36.6418	-28.6168	211.06	-50.7275	-42.1966	
201	1.675	192.369	-48.785	-19.0846	180.603	-78.2772	-31.6914	195.187	-96.2422	-32.3267	219.508	-103.015	-20.2827	193.75	-112.838	-43.4678	191.78	-125.019	-15.6966	191.287	-98.7477	-3.62835	214.249	-119.024	-31.1375	202.871	-120.045	-3.4016	207.059	-84.5923	-1.46551	229.449	-114.054	-21.9215	220.528	-106.066	3.15098	217.264	-77.554	-6.28028	242.646	-107.086	-15.3935	230.334	-96.5607	5.07747	227.485	-71.6308	-6.72393	241.758	-73.1566	-40.9546	239.567	-45.1804	-31.9449	212.194	-52.3371	-39.038	
202	1.68333	198.502	-49.5235	-20.6814	182.562	-72.9702	-30.0624	197.976	-96.1836	-31.1894	219.785	-98.4056	-18.1139	187.141	-114.462	-40.8706	183.996	-120.387	-14.2401	190.09	-92.1235	-8.18626	204.608	-117.213	-30.4706	198.826	-117.687	0.857755	202.013	-86.9493	1.8425	218.429	-116.968	-18.2535	213.129	-102.619	5.35309	218.028	-78.7301	-4.20626	236.823	-111.237	-9.24694	223.981	-94.8063	5.17701	227.875	-70.5324	-5.52846	242.055	-76.5366	-40.3027	247.572	-53.6358	-29.6587	218.617	-55.7644	-39.7773	
203	1.69167	200.84	-46.562	-22.415	182.173	-70.1669	-28.5132	196.335	-94.0821	-27.6333	217.558	-102.981	-14.8755	183.916	-110.204	-40.2393	175.232	-113.124	-16.0291	187.136	-82.9329	-18.8045	197.861	-119.451	-27.1296	190.5	-115.603	-0.311836	203.436	-85.3144	2.87593	214.677	-118.434	-15.5015	206.848	-100.695	6.15892	220.127	-79.0649	-5.85256	226.635	-111.834	-5.32959	220.066	-90.938	4.47602	226.447	-71.7646	-6.07737	241.615	-82.8894	-38.5238	255.403	-57.1126	-27.225	223.144	-57.7498	-42.3029	
204	1.7	210.216	-43.8587	-19.3583	187.274	-64.9451	-25.8094	189.198	-91.3888	-26.1105	206.794	-105.147	-13.4461	185.061	-106.397	-41.7266	171.544	-104.253	-18.8624	190.732	-79.5137	-20.8136	194.574	-116.149	-28.3455	184.628	-113.73	-1.72351	195.761	-83.3171	4.71111	204.645	-117.706	-14.0894	202.687	-100.219	7.67466	215.539	-79.3192	-6.20716	221.854	-111.8	-4.04296	218.813	-89.3905	8.50493	225.809	-71.7043	-6.06316	242.594	-87.0134	-32.3793	257.031	-65.271	-24.6707	230.238	-58.9942	-38.8871	
205	1.70833	215.103	-44.6601	-20.1648	185.324	-58.4193	-23.015	182.486	-85.0844	-21.4575	197.729	-104.105	-10.346	184.204	-100.555	-42.9466	169.264	-96.9378	-22.0133	185.392	-75.9888	-17.8373	193.518	-111.614	-31.7849	175.981	-111.08	-8.02295	193.987	-82.4938	3.83408	200.08	-118.199	-12.8123	191.996	-100.717	4.24936	210.26	-81.0855	-3.29798	216.208	-110.946	-2.90841	210.385	-88.3793	9.2535	224.772	-70.964	-5.77628	245.053	-93.6685	-28.1677	259.796	-67.961	-19.9604	237.426	-63.6534	-37.3158	
206	1.71667	219.89	-46.7278	-21.4741	187.33	-58.695	-16.846	176.39	-83.0164	-10.8959	184.991	-102.783	1.65329	185.918	-97.0566	-44.6698	168.113	-90.4312	-27.4935	190.101	-71.4101	-19.3118	194.177	-111.965	-36.0793	170.318	-110.692	-16.7227	187.644	-82.4663	-7.01627	198.007	-115.662	-14.0066	185.59	-96.0129	4.28075	209.269	-79.7586	0.310276	208.229	-109.461	2.66877	202.7	-83.8872	7.95844	220.248	-71.4816	-1.57388	242.26	-95.4419	-22.3303	260.262	-79.529	-11.0918	241.813	-70.435	-31.7258	
207	1.725	228.747	-48.2138	-21.9573	196.158	-60.5264	-23.5435	181.549	-82.878	-16.9351	186.896	-99.9989	0.766236	186.521	-95.1493	-45.8138	168.202	-85.0426	-29.2481	189.868	-68.0541	-23.2617	186.57	-112.792	-32.3093	165.184	-104.54	-19.1891	184.912	-76.4759	-12.6304	192.214	-111.283	-10.6358	176.176	-89.0806	3.03772	194.895	-72.977	5.41326	200.801	-104.977	7.00991	197.487	-78.4385	13.8688	216.383	-68.8616	1.82704	240.438	-101.097	-13.1067	262.827	-85.182	-0.705381	248.338	-76.4907	-27.3784	
208	1.73333	234.457	-55.0287	-25.7547	201.263	-61.4539	-30.3077	188.061	-84.1926	-18.7819	190.662	-99.1983	4.59275	189.035	-97.6456	-44.2407	168.199	-82.4432	-35.9744	197.863	-67.3062	-28.2101	182.642	-109.861	-27.7276	160.181	-96.1905	-17.0254	177.92	-68.9153	-9.61539	185.648	-107.25	-8.406	169.706	-87.5212	-3.22258	188.256	-65.5906	2.77094	189.444	-96.9368	11.4171	187.715	-75.1161	14.7698	209.48	-64.7013	4.00863	234.746	-102.835	-4.07071	256.909	-91.6481	3.97495	245.402	-88.2383	-22.3924	
